<svg xmlns="http://www.w3.org/2000/svg" viewBox="0 0 64 64">
  <defs>
    <linearGradient id="bg" x1="0%" y1="0%" x2="100%" y2="100%">
      <stop offset="0%" style="stop-color:#0d9488"/>
      <stop offset="100%" style="stop-color:#059669"/>
    </linearGradient>
  </defs>
  <rect width="64" height="64" rx="14" fill="url(#bg)"/>
  <!-- Soccer ball -->
  <circle cx="32" cy="32" r="18" fill="white" opacity="0.95"/>
  <!-- Pentagon pattern -->
  <polygon points="32,17 37,22 35,28 29,28 27,22" fill="#0d9488"/>
  <polygon points="32,47 37,42 35,36 29,36 27,42" fill="#0d9488" transform="rotate(180,32,32)"/>
  <polygon points="17,32 22,27 28,29 28,35 22,37" fill="#0d9488" transform="rotate(-72,32,32)"/>
  <polygon points="47,32 42,27 36,29 36,35 42,37" fill="#0d9488" transform="rotate(72,32,32)"/>
  <polygon points="17,32 22,27 28,29 28,35 22,37" fill="#0d9488" transform="rotate(72,32,32)"/>
  <polygon points="47,32 42,27 36,29 36,35 42,37" fill="#0d9488" transform="rotate(-72,32,32)"/>
</svg>
